<?xml version="1.0" standalone="no"?>
<!DOCTYPE svg PUBLIC "-//W3C//DTD SVG 20010904//EN"
 "http://www.w3.org/TR/2001/REC-SVG-20010904/DTD/svg10.dtd">
<svg version="1.0" xmlns="http://www.w3.org/2000/svg"
 width="400.000000pt" height="400.000000pt" viewBox="0 0 400.000000 400.000000"
 preserveAspectRatio="xMidYMid meet">

<g transform="translate(0.000000,400.000000) scale(0.100000,-0.100000)"
fill="#000000" stroke="none">
<path d="M50 2000 l0 -1950 1950 0 1950 0 0 1950 0 1950 -1950 0 -1950 0 0
-1950z m980 889 c79 -12 112 -32 108 -62 -3 -20 -10 -22 -78 -25 -41 -2 -110
2 -153 8 -197 28 -517 -56 -612 -161 -42 -47 -44 -73 -8 -96 23 -15 50 -18
168 -18 159 1 206 9 520 91 366 96 378 100 406 146 31 52 83 78 153 78 30 0
58 -5 62 -11 3 -6 -4 -25 -16 -42 -19 -25 -20 -29 -5 -24 9 4 82 13 161 19
176 15 267 4 388 -45 l84 -34 138 4 c121 5 393 -11 579 -33 l50 -6 48 66 c61
86 94 106 175 106 43 0 62 -4 62 -13 0 -6 -25 -47 -56 -91 -30 -43 -54 -80
-52 -82 2 -2 77 -8 167 -15 211 -15 442 -8 495 14 51 22 73 21 81 -3 17 -53
-34 -91 -150 -111 -69 -12 -574 -7 -641 7 -30 6 -32 3 -101 -103 -107 -166
-262 -448 -251 -459 2 -1 98 10 213 27 116 16 261 32 323 36 l114 6 -4 -29
c-2 -22 -12 -33 -38 -46 -46 -21 -246 -55 -471 -78 -100 -10 -185 -22 -189
-27 -17 -18 -121 -294 -145 -388 -30 -114 -38 -242 -16 -269 20 -24 53 -20
102 14 59 40 89 40 89 1 0 -33 -38 -69 -103 -96 -47 -19 -78 -19 -120 1 -58
28 -72 64 -72 184 1 136 35 268 140 541 5 14 -17 17 -212 22 -392 10 -636 67
-819 189 -127 85 -162 154 -129 256 40 128 230 242 555 334 l45 13 -65 5
c-117 9 -440 -24 -477 -49 -40 -26 -280 -432 -383 -646 -135 -279 -200 -490
-202 -659 -2 -136 11 -148 93 -95 54 34 82 35 87 1 7 -51 -119 -121 -193 -108
-221 42 -129 472 256 1207 49 93 100 187 114 210 23 35 24 40 8 35 -242 -74
-539 -149 -638 -162 -161 -21 -323 -16 -387 13 -155 70 -85 257 135 361 178
84 466 124 667 91z"/>
<path d="M2409 2592 l-56 -3 18 -37 c34 -66 18 -155 -25 -139 -8 3 -21 30 -30
59 -10 34 -27 65 -49 86 l-34 33 -104 -11 c-355 -39 -532 -124 -570 -273 -14
-58 -7 -87 33 -132 89 -102 348 -163 778 -183 186 -9 260 -7 260 8 0 17 142
315 211 441 39 72 68 133 65 136 -6 7 -421 19 -497 15z"/>
</g>
</svg>
